<?xml version="1.0" standalone="no"?>
<!DOCTYPE svg PUBLIC "-//W3C//DTD SVG 20010904//EN"
 "http://www.w3.org/TR/2001/REC-SVG-20010904/DTD/svg10.dtd">
<svg version="1.0" xmlns="http://www.w3.org/2000/svg"
 width="764.000000pt" height="764.000000pt" viewBox="0 0 764.000000 764.000000"
 preserveAspectRatio="xMidYMid meet">
<metadata>
Created by potrace 1.14, written by Peter Selinger 2001-2017
</metadata>
<g transform="translate(0.000000,764.000000) scale(0.100000,-0.100000)"
fill="#000000" stroke="none">
<path d="M3600 6339 c-68 -9 -108 -14 -175 -24 -72 -11 -281 -63 -371 -94
-126 -41 -183 -65 -313 -128 -607 -293 -1078 -830 -1293 -1473 -20 -58 -44
-140 -54 -182 l-19 -78 -664 -2 c-581 -3 -664 -5 -666 -18 -25 -186 -30 -271
-30 -515 0 -210 7 -376 19 -440 2 -11 6 -41 10 -66 l7 -46 647 -1 c356 0 654
-1 663 -1 11 -1 20 -19 28 -58 34 -153 123 -391 213 -566 261 -509 739 -948
1273 -1170 169 -70 437 -146 570 -162 32 -3 62 -8 65 -10 38 -24 610 -24 683
0 7 2 30 6 52 9 82 12 113 18 225 46 451 114 838 335 1170 669 217 218 371
434 500 704 61 126 161 411 175 495 6 39 9 42 38 43 18 0 305 1 640 1 l607 1
1 21 c0 12 2 28 3 36 4 18 15 122 22 200 9 93 10 440 3 542 -9 116 -18 216
-24 243 -2 11 -4 26 -4 32 -1 10 -139 13 -638 15 l-637 3 -18 70 c-149 576
-486 1076 -958 1422 -175 128 -355 229 -548 308 -178 72 -442 143 -607 161
-27 3 -61 8 -75 11 -42 9 -451 10 -520 2z m520 -202 c14 -3 45 -8 70 -11 25
-4 57 -8 73 -11 15 -3 37 -7 50 -9 46 -8 165 -39 242 -63 408 -129 777 -374
1069 -708 148 -171 293 -407 391 -640 22 -52 91 -260 100 -302 l7 -33 -186 0
c-177 0 -185 1 -191 20 -16 50 -149 204 -212 247 -13 8 -20 19 -17 24 3 5 2 8
-3 7 -4 -1 -29 8 -55 20 -46 21 -51 29 -51 75 0 9 -4 17 -9 17 -6 0 -8 9 -5
20 3 11 1 23 -4 26 -5 3 -9 10 -9 16 0 6 10 3 23 -8 20 -17 20 -16 -2 9 -14
15 -20 27 -15 27 5 0 2 5 -6 10 -13 8 -13 10 -1 10 11 0 9 4 -5 15 -13 10 -14
14 -5 15 9 0 10 4 3 13 -5 6 -17 53 -27 102 -14 76 -21 94 -46 116 -24 21 -38
26 -74 24 -32 -2 -43 0 -38 8 3 7 -6 1 -21 -13 -16 -14 -37 -42 -47 -62 -13
-26 -26 -38 -40 -38 -21 0 -138 57 -150 73 -3 5 -9 8 -13 8 -24 -3 -46 0 -43
7 5 8 -4 9 -130 14 -48 2 -83 0 -83 -6 0 -5 -3 -7 -6 -4 -8 9 -115 -21 -159
-45 -22 -12 -56 -34 -76 -49 -42 -32 -58 -36 -38 -10 13 15 12 16 -3 3 -10 -7
-16 -17 -13 -21 7 -11 -20 -31 -29 -22 -4 4 -6 2 -4 -4 2 -6 -11 -25 -29 -42
-17 -17 -28 -34 -25 -38 4 -4 -1 -4 -11 -1 -10 4 -16 3 -12 -2 3 -5 -2 -17
-11 -25 -8 -9 -13 -16 -9 -16 4 0 -1 -8 -11 -17 -10 -10 -21 -18 -25 -18 -4 0
-11 -3 -15 -7 -4 -5 -2 -8 5 -8 7 0 9 -5 6 -10 -4 -6 -10 -8 -15 -5 -4 3 -7
-3 -6 -13 0 -10 -5 -16 -14 -14 -8 2 -12 0 -8 -3 4 -4 2 -17 -4 -29 -7 -11
-11 -24 -10 -28 1 -5 -3 -8 -8 -8 -6 0 -10 -7 -10 -15 0 -8 -5 -15 -12 -15 -6
0 -8 -3 -5 -6 3 -4 1 -16 -5 -28 -7 -11 -13 -23 -13 -26 -1 -3 -9 -23 -19 -45
-9 -22 -23 -57 -29 -77 -7 -21 -14 -38 -17 -38 -3 0 -7 -11 -8 -26 -1 -14 -7
-34 -12 -45 -6 -11 -8 -24 -5 -29 4 -6 -7 -10 -25 -10 -21 0 -29 4 -24 12 5 7
3 8 -7 2 -19 -12 -157 -15 -165 -3 -3 5 1 9 8 9 9 0 10 3 2 8 -6 4 -14 27 -17
52 -3 25 -9 53 -12 63 -5 11 -2 17 6 17 11 0 11 2 0 9 -14 9 -18 20 -25 69 -1
13 -7 27 -12 30 -5 4 -10 16 -12 27 -2 19 3 20 124 20 73 0 129 4 133 10 4 5
13 30 20 54 7 23 15 49 18 57 4 11 -5 10 -40 -5 -67 -29 -232 -48 -244 -28 -2
4 -11 3 -18 -3 -9 -8 -15 -8 -20 0 -3 6 -11 8 -16 5 -5 -4 -14 5 -21 19 -6 14
-16 26 -21 26 -6 0 -8 3 -5 6 3 3 -5 16 -19 30 -14 14 -21 29 -17 37 4 6 3 9
-1 4 -11 -9 -55 32 -55 51 0 9 -3 12 -6 9 -11 -10 -45 13 -38 25 4 6 3 8 -2 5
-6 -3 -29 8 -53 24 -24 16 -48 29 -53 29 -5 0 -6 4 -3 10 3 6 -1 7 -9 4 -11
-4 -16 0 -17 12 0 11 -3 14 -6 7 -2 -7 -9 -13 -14 -13 -6 0 -7 5 -3 11 4 7 1
10 -7 7 -8 -3 -29 1 -48 8 -18 8 -42 14 -52 14 -11 0 -19 4 -19 8 0 4 -12 8
-27 9 -163 8 -201 11 -211 17 -7 4 -12 4 -12 -1 0 -4 -52 -8 -115 -8 -120 0
-126 3 -100 45 8 13 7 13 -8 1 -9 -7 -15 -17 -12 -21 3 -4 -1 -13 -9 -19 -11
-9 -15 -9 -20 1 -5 11 -7 11 -12 0 -5 -10 -9 -10 -22 0 -9 7 -13 9 -10 3 7
-11 -127 -13 -138 -2 -4 4 -12 4 -17 0 -18 -11 -56 -10 -49 2 3 5 -2 4 -11 -4
-14 -11 -17 -11 -17 0 0 9 -3 10 -8 4 -8 -11 -47 -13 -58 -2 -4 3 -12 4 -17 0
-18 -11 -56 -10 -49 2 3 5 -2 4 -11 -4 -14 -11 -17 -11 -17 0 0 9 -3 10 -8 4
-4 -5 -16 -10 -27 -10 -11 0 -23 5 -27 10 -5 6 -8 4 -8 -5 0 -13 -1 -13 -10 0
-5 8 -10 10 -10 4 0 -14 -31 -14 -50 0 -13 10 -13 9 -1 -6 9 -12 10 -18 2 -18
-6 0 -11 -13 -11 -30 0 -17 -5 -30 -12 -30 -10 0 -9 -3 1 -9 9 -6 12 -23 10
-55 -2 -25 0 -46 4 -46 5 0 7 -7 3 -15 -3 -8 -2 -14 2 -13 12 3 72 -32 72 -42
0 -6 6 -10 13 -10 20 0 37 -44 37 -94 0 -42 -1 -43 -42 -56 -24 -8 -47 -13
-51 -12 -5 2 -6 -1 -3 -6 3 -5 -60 -37 -139 -72 -80 -35 -145 -68 -145 -72 0
-5 8 -7 18 -4 9 3 43 8 76 11 32 3 61 7 65 10 4 2 36 7 72 10 35 4 70 8 77 10
6 3 12 1 13 -3 8 -70 8 -73 -9 -60 -15 11 -15 10 1 -8 9 -11 14 -24 10 -27 -3
-4 -1 -7 6 -7 7 0 9 -5 4 -12 -11 -19 -13 -39 -2 -32 5 3 9 -11 9 -30 0 -32
-3 -36 -26 -36 -17 0 -23 4 -18 13 6 10 4 10 -7 0 -10 -10 -82 -13 -287 -13
-256 0 -273 1 -268 18 3 9 10 37 16 62 83 319 291 699 520 944 133 142 284
273 419 363 47 31 98 64 113 74 48 33 267 139 356 173 152 58 302 100 422 120
19 3 46 8 60 10 14 3 52 7 85 11 33 4 62 8 64 10 5 6 452 -2 481 -8z m798
-1215 c28 -14 52 -32 52 -39 0 -8 5 -11 10 -8 6 3 10 2 10 -3 0 -4 8 -17 18
-28 10 -11 26 -31 35 -44 l16 -25 -52 -2 c-90 -5 -248 -46 -322 -86 -38 -20
-39 -20 -25 -1 14 18 14 18 -2 5 -14 -10 -21 -11 -32 -2 -18 15 -9 51 13 52
15 0 15 1 0 7 -13 6 -14 12 -6 32 5 14 12 34 14 44 6 34 23 48 42 34 14 -12
14 -11 2 5 -12 16 -11 20 7 38 12 11 22 17 22 13 0 -4 8 0 18 8 37 34 111 34
180 0z m-1931 -4 c31 -13 63 -42 63 -57 0 -5 5 -11 10 -13 12 -4 23 -41 24
-85 1 -17 4 -29 7 -27 3 2 7 -19 8 -47 1 -33 -2 -48 -9 -44 -6 3 -8 10 -6 14
3 4 -1 8 -9 8 -12 0 -12 -4 2 -19 12 -14 18 -40 19 -94 1 -43 -2 -72 -7 -68
-5 3 -7 9 -5 13 3 4 -2 8 -10 8 -11 0 -11 -4 4 -21 22 -26 31 -92 10 -81 -10
6 -11 5 0 -6 6 -7 12 -20 12 -28 0 -11 -5 -10 -22 5 -18 15 -20 15 -9 2 12
-16 5 -17 -108 -16 l-121 2 1 25 c1 15 -1 33 -5 42 -4 10 -3 20 3 23 5 4 6 18
2 34 -10 40 -5 110 11 129 11 14 11 16 -1 8 -11 -6 -13 -4 -8 8 3 10 3 17 -2
17 -9 0 -7 43 4 60 4 6 1 17 -5 25 -12 15 -3 21 23 16 5 -1 6 3 2 9 -3 6 -11
8 -16 5 -18 -12 -14 71 4 94 10 12 9 13 -2 6 -11 -6 -13 -4 -8 8 3 10 2 17 -2
17 -5 0 -7 9 -4 20 5 17 14 20 64 20 32 0 71 -5 86 -12z m2007 -182 c-3 -7
-31 -19 -62 -26 -90 -20 -211 -82 -278 -144 -31 -28 -40 -33 -42 -20 -2 9 2
20 10 25 10 7 10 9 -2 9 -18 0 33 46 61 55 11 4 19 10 19 15 0 18 239 98 258
86 5 -3 14 -1 22 5 20 12 20 11 14 -5z m-360 -77 c-10 -16 -24 -9 -24 12 0 18
2 19 15 9 8 -7 12 -16 9 -21z m418 12 c-1 -7 2 -10 8 -6 6 3 8 11 4 16 -9 15
19 6 34 -11 9 -10 11 -11 6 -1 -4 9 -2 12 7 9 8 -3 13 -11 12 -17 -2 -6 2 -11
8 -11 6 0 9 -5 7 -12 -2 -6 4 -20 15 -31 14 -14 16 -21 7 -33 -7 -7 -16 -12
-19 -9 -4 2 -8 -2 -8 -10 0 -12 4 -12 19 2 16 15 21 15 28 3 5 -8 6 -18 4 -22
-3 -4 -1 -8 4 -8 12 0 34 -49 26 -61 -3 -5 0 -8 7 -7 6 2 14 -3 17 -11 3 -9 0
-11 -8 -6 -9 5 -11 4 -6 -4 4 -6 12 -9 17 -6 5 4 9 2 9 -4 0 -5 19 -12 43 -16
47 -8 70 -22 60 -38 -3 -6 -1 -7 6 -3 9 6 9 11 0 23 -11 12 -10 14 2 13 34 -5
59 1 77 20 18 19 18 19 39 -23 l21 -44 -51 -2 c-47 -2 -50 -1 -36 16 13 17 12
17 -6 2 -26 -20 -111 -27 -99 -7 6 10 5 11 -7 1 -10 -8 -107 -12 -348 -12
-306 -1 -333 1 -327 16 16 41 101 156 144 194 61 54 161 101 218 103 24 0 44
5 44 9 0 5 6 7 13 4 6 -2 11 -10 9 -16z m395 -85 c-3 -8 1 -13 11 -12 9 0 17
-6 17 -14 0 -8 -6 -14 -13 -12 -8 1 -11 -2 -7 -8 5 -8 11 -7 21 1 17 14 48 -6
37 -24 -3 -5 -2 -7 4 -4 12 8 62 -53 92 -111 l21 -42 -42 0 c-41 1 -44 3 -62
43 -11 23 -30 57 -44 75 -13 17 -21 32 -16 32 4 0 1 6 -8 13 -17 13 -31 60
-21 71 11 10 15 7 10 -8z m-3306 -1317 c42 -2 47 -5 45 -26 -1 -16 -6 -22 -16
-18 -11 4 -10 1 2 -8 14 -11 15 -16 5 -27 -10 -10 -9 -11 2 -5 9 5 12 4 7 -4
-4 -6 -9 -46 -12 -89 -4 -75 -9 -122 -14 -132 -1 -3 -3 -16 -3 -29 -2 -26 1
-25 -117 -42 -41 -5 -86 -12 -100 -14 -14 -2 -46 -7 -72 -10 -91 -13 -47 -23
97 -21 80 0 145 -2 145 -6 0 -8 21 -5 38 5 6 5 12 4 12 -1 0 -6 10 -8 23 -4
20 5 21 4 7 -14 -14 -18 -14 -18 6 -1 28 23 34 22 34 -11 0 -35 -26 -72 -50
-72 -19 0 -21 14 -5 40 7 13 6 13 -7 2 -9 -7 -15 -22 -13 -33 3 -14 -3 -23
-20 -29 -18 -7 -25 -17 -25 -35 0 -25 -8 -31 -26 -17 -5 4 -1 0 8 -10 20 -18
24 -33 7 -22 -8 4 -8 1 -1 -12 5 -11 8 -30 7 -44 -3 -32 14 -68 34 -74 9 -3
41 -6 71 -7 37 -1 62 -8 76 -21 16 -15 21 -15 21 -4 0 8 -4 13 -8 10 -4 -2
-10 0 -14 6 -4 6 15 9 52 6 34 -2 57 -7 56 -14 -1 -5 5 -16 14 -24 14 -11 16
-11 8 2 -21 35 -15 41 38 39 34 -1 59 -9 73 -21 16 -15 21 -15 21 -4 0 8 -4
13 -8 10 -4 -2 -11 1 -14 7 -9 14 95 10 114 -5 12 -9 13 -8 7 2 -13 22 94 13
120 -10 16 -15 21 -15 21 -4 0 8 -4 13 -8 10 -4 -2 -10 0 -14 6 -4 6 15 9 52
6 34 -2 57 -7 56 -14 -1 -5 5 -16 14 -24 14 -11 16 -11 8 2 -18 29 -13 38 25
42 21 2 37 1 35 -3 -2 -3 1 -6 8 -6 7 0 13 12 14 26 0 14 5 27 10 28 5 2 7 21
5 44 -3 28 1 46 14 62 10 12 12 16 4 10 -21 -19 -32 -16 -25 8 5 15 4 19 -4
15 -6 -4 -11 -1 -11 8 0 8 -23 25 -50 37 -32 14 -49 28 -46 36 3 7 0 12 -7 10
-7 -1 -12 9 -12 25 1 14 -2 25 -6 22 -10 -6 -16 45 -11 93 4 38 6 41 30 37 15
-3 24 -2 20 1 -5 6 -25 11 -49 14 -8 1 -3 46 6 61 4 6 1 17 -5 25 -12 15 -3
21 23 16 5 -1 6 3 2 9 -3 6 -10 8 -15 5 -12 -7 -17 24 -12 73 3 32 7 40 16 32
9 -7 13 -6 13 5 0 8 -4 12 -8 9 -4 -2 -13 5 -19 16 -8 15 -8 20 1 20 9 0 8 4
0 14 -10 12 0 15 66 16 82 1 729 2 751 1 24 -2 -40 -102 -113 -176 -77 -78
-178 -136 -295 -170 -76 -22 -295 -28 -346 -9 -17 7 -37 8 -44 4 -9 -6 -7 -10
9 -15 11 -3 21 -11 21 -16 0 -13 -13 -11 -30 3 -8 7 -7 4 2 -6 14 -16 20 -17
32 -6 11 8 20 9 29 3 6 -5 57 -20 112 -33 102 -24 287 -33 363 -17 175 38 342
142 462 287 25 30 47 57 50 60 3 3 14 24 25 47 20 42 55 60 55 27 0 -9 -5 -13
-12 -9 -7 4 -6 0 3 -7 17 -14 53 -120 51 -151 0 -9 3 -15 8 -12 4 3 11 -7 15
-22 6 -25 17 -52 63 -153 9 -19 18 -37 22 -40 8 -7 70 -110 70 -116 0 -3 6
-11 13 -18 35 -37 55 -65 50 -70 -4 -3 2 -6 11 -6 12 0 16 -5 13 -14 -4 -11
-1 -13 10 -9 12 5 15 2 11 -9 -4 -10 -1 -15 10 -14 10 0 16 -6 16 -16 -1 -9 4
-14 11 -12 7 3 19 -2 28 -10 9 -9 20 -16 25 -16 5 0 21 -11 36 -25 14 -13 26
-20 26 -15 0 4 14 3 30 -3 17 -6 30 -15 30 -19 0 -11 -14 -10 -26 2 -7 7 -11
6 -11 -3 0 -8 11 -13 28 -13 15 0 26 3 23 8 -3 5 7 5 23 1 29 -8 188 -10 236
-3 15 2 27 9 27 14 0 5 3 7 6 3 3 -3 22 3 41 14 19 11 39 17 44 13 5 -3 8 0 7
8 -2 7 5 12 15 11 10 0 16 1 13 4 -2 3 18 28 45 56 l49 50 40 -13 c22 -7 40
-16 40 -19 0 -3 12 -12 28 -18 15 -7 45 -29 67 -48 74 -67 107 -84 160 -85 57
-1 81 2 92 15 4 4 2 5 -4 1 -15 -9 -18 10 -3 19 6 4 8 11 5 16 -4 5 -2 9 2 9
5 0 8 44 7 98 -1 61 2 102 9 111 7 9 7 12 1 9 -14 -9 -15 73 -1 91 9 12 9 13
-1 7 -9 -5 -12 4 -10 40 3 42 7 50 47 80 24 19 49 31 55 27 6 -3 8 -3 4 2 -4
4 18 36 50 70 31 34 77 96 100 136 l44 74 164 -1 c90 0 166 -3 169 -6 3 -2 -6
-42 -19 -89 -170 -620 -625 -1167 -1211 -1455 -106 -52 -167 -80 -200 -89 -5
-2 -50 -17 -100 -35 -244 -84 -482 -119 -775 -115 -161 3 -239 9 -365 31 -16
3 -43 7 -59 10 -16 3 -33 7 -36 9 -4 3 -25 7 -46 11 -76 12 -334 103 -456 161
-366 176 -690 452 -920 783 -131 190 -248 432 -313 650 -39 132 -39 128 -8
132 33 4 468 2 534 -3z m1665 -2 c3 -2 -9 -29 -27 -58 -88 -150 -226 -261
-397 -318 -72 -24 -236 -39 -246 -22 -5 7 4 11 26 11 84 1 240 56 330 118 87
60 165 149 208 237 8 17 18 32 22 35 8 6 77 4 84 -3z m1831 -25 c-20 -47 -59
-102 -68 -96 -5 3 -6 -1 -4 -8 8 -19 -36 -58 -60 -54 -25 4 -32 34 -11 42 9 3
13 10 11 15 -3 4 2 16 12 26 10 10 18 23 19 28 3 35 30 74 54 77 49 6 60 -1
47 -30z m-779 -8 c2 -31 0 -35 -11 -26 -10 9 -14 8 -14 -3 0 -7 5 -13 11 -12
7 1 11 -35 12 -110 1 -110 0 -112 -20 -101 -12 6 -28 19 -37 29 -9 10 -18 16
-21 14 -5 -5 -44 36 -90 93 -31 39 -68 113 -62 124 4 7 2 8 -4 4 -7 -4 -12 -1
-12 7 0 13 22 15 123 16 l123 1 2 -36z m652 26 c0 -5 -5 -10 -11 -10 -6 0 -9
-7 -6 -15 4 -8 2 -17 -3 -20 -6 -4 -10 7 -10 24 0 21 5 31 15 31 8 0 15 -4 15
-10z m0 -196 c-3 -5 -9 -8 -13 -6 -5 1 -6 -2 -3 -7 4 -5 2 -12 -4 -16 -6 -4
-10 4 -10 19 0 17 5 24 18 22 9 -2 15 -7 12 -12z m-879 -16 c1 -7 0 -17 -1
-23 -1 -5 2 -7 5 -3 11 11 47 -11 39 -24 -4 -6 -3 -8 3 -5 6 4 27 -4 47 -18
20 -14 41 -25 47 -25 6 0 7 -5 4 -11 -4 -6 -1 -9 6 -7 20 4 79 -25 79 -39 0
-6 -8 -9 -20 -6 -11 3 -20 10 -20 15 0 5 -5 6 -10 3 -6 -4 -17 -1 -25 5 -8 7
-15 10 -15 6 0 -11 -58 22 -81 47 -12 12 -18 15 -14 7 6 -9 -3 -7 -26 7 -24
16 -35 30 -37 53 -2 16 1 30 7 30 6 0 12 -6 12 -12z m59 -151 c0 -5 6 -7 14
-4 8 3 22 -1 33 -8 10 -8 26 -15 36 -15 9 0 17 -4 17 -10 0 -5 7 -7 15 -4 8 4
15 2 15 -4 0 -6 10 -8 21 -5 21 6 21 4 15 -42 -9 -60 -16 -76 -27 -69 -5 3 -6
-1 -4 -9 9 -22 -31 -49 -80 -55 -49 -5 -95 11 -95 35 0 7 -4 13 -9 13 -12 0
-35 86 -27 106 5 14 9 14 24 3 15 -13 16 -12 3 3 -7 10 -17 15 -22 12 -5 -3
-9 20 -9 51 l0 56 40 -22 c22 -13 40 -27 40 -32z"/>
<path d="M3865 5970 c3 -4 27 -10 54 -14 139 -18 268 -141 308 -291 l13 -50
-5 43 c-12 101 -102 218 -207 270 -58 29 -173 58 -163 42z"/>
<path d="M3788 5963 c6 -2 18 -2 25 0 6 3 1 5 -13 5 -14 0 -19 -2 -12 -5z"/>
<path d="M3720 5950 c-18 -12 -2 -12 25 0 13 6 15 9 5 9 -8 0 -22 -4 -30 -9z"/>
<path d="M3640 5911 c-49 -30 -112 -95 -129 -133 -11 -22 -11 -22 6 2 40 56
88 101 136 129 29 17 48 31 42 31 -5 0 -30 -13 -55 -29z"/>
<path d="M3823 5923 c9 -2 25 -2 35 0 9 3 1 5 -18 5 -19 0 -27 -2 -17 -5z"/>
<path d="M3888 5923 c6 -2 18 -2 25 0 6 3 1 5 -13 5 -14 0 -19 -2 -12 -5z"/>
<path d="M3728 5909 c-18 -10 -25 -49 -9 -49 5 0 7 9 4 20 -5 18 4 24 24 18
12 -5 12 -28 0 -28 -5 0 -8 -2 -5 -5 3 -3 16 -1 29 4 16 7 19 10 7 10 -11 1
-16 8 -13 21 4 22 -10 25 -37 9z"/>
<path d="M3959 5905 c25 -11 32 -19 26 -32 -5 -15 -4 -16 7 -5 11 11 9 17 -11
33 -13 10 -31 19 -40 19 -9 -1 -1 -7 18 -15z"/>
<path d="M3608 5851 c-36 -33 -68 -75 -87 -113 -37 -73 -38 -84 -8 -91 20 -6
21 -5 4 8 -18 13 -17 15 4 64 18 43 24 49 36 39 13 -10 12 -13 -4 -19 -16 -7
-15 -8 5 -8 26 -1 28 6 7 29 -14 16 -13 20 11 49 l26 32 22 -23 22 -23 -28
-33 c-15 -18 -35 -49 -43 -70 -9 -20 -21 -39 -26 -43 -7 -4 -8 -9 -1 -13 5 -3
20 17 32 45 12 29 43 75 68 103 26 28 40 46 32 40 -11 -8 -20 -5 -37 12 l-21
23 23 15 c22 15 24 14 44 -17 11 -18 21 -27 21 -22 0 6 -10 23 -23 39 l-23 28
-56 -51z m43 -32 c8 -15 6 -17 -6 -13 -9 4 -13 9 -11 12 3 3 -2 11 -12 19 -16
12 -16 13 1 7 10 -4 22 -15 28 -25z"/>
<path d="M3927 5886 c-16 -13 -16 -14 9 -20 14 -4 29 -5 32 -1 3 3 -2 5 -11 5
-10 0 -14 5 -11 15 7 18 4 18 -19 1z"/>
<path d="M3806 5882 c5 -4 10 -16 10 -28 0 -15 -5 -20 -18 -16 -22 5 -22 2 -2
-34 14 -25 15 -26 11 -6 -5 20 -2 23 14 19 15 -4 17 -2 9 13 -13 24 -13 26 6
44 14 15 13 16 -13 16 -15 0 -23 -4 -17 -8z"/>
<path d="M3870 5870 c6 -11 12 -20 14 -20 2 0 2 9 -1 20 -3 11 -9 20 -15 20
-5 0 -4 -9 2 -20z"/>
<path d="M4007 5864 l-19 -25 43 -37 c23 -20 55 -56 71 -81 15 -25 28 -40 28
-35 0 6 -7 19 -15 30 -19 25 -19 34 1 34 8 0 12 -4 9 -10 -3 -6 1 -7 9 -4 14
5 14 8 0 21 -11 11 -18 12 -28 4 -10 -8 -19 -4 -37 17 -13 16 -35 36 -48 44
l-23 17 25 25 c15 14 21 26 14 26 -7 0 -20 -12 -30 -26z"/>
<path d="M4051 5862 c-6 -11 -11 -27 -10 -34 0 -7 5 0 11 15 8 23 12 26 25 15
13 -11 13 -13 -4 -20 -15 -7 -14 -8 5 -4 15 3 28 -4 42 -21 11 -15 22 -24 25
-21 2 2 -15 24 -39 47 -42 41 -45 42 -55 23z"/>
<path d="M3869 5824 c-14 -17 -5 -18 22 -4 20 11 28 -3 9 -15 -5 -3 -10 -46
-10 -95 l0 -89 81 0 c56 0 89 5 103 14 11 8 15 15 9 15 -7 0 -15 -4 -18 -10
-3 -5 -23 -9 -43 -9 -20 1 -30 3 -20 6 23 6 48 62 39 87 -8 22 -45 46 -72 46
-8 0 -24 -7 -35 -15 -10 -8 -14 -15 -7 -15 6 0 15 5 18 10 3 6 16 10 28 9 l22
0 -22 -9 c-29 -12 -29 -33 -1 -52 13 -9 18 -19 14 -27 -6 -9 -11 -9 -22 0 -8
7 -14 7 -14 1 0 -12 21 -21 38 -15 18 7 15 24 -10 50 -17 19 -18 23 -6 23 9 0
18 6 21 13 6 19 37 -11 37 -37 0 -42 -38 -70 -76 -55 -45 16 -73 131 -39 159
22 19 88 -13 132 -64 20 -23 31 -32 25 -21 -36 70 -172 137 -203 99z m75 -182
c19 -10 18 -11 -11 -11 -31 -1 -33 1 -32 32 0 29 1 30 11 11 5 -12 20 -27 32
-32z"/>
<path d="M3723 5813 c-18 -9 -33 -20 -33 -24 0 -7 58 21 79 38 12 9 -18 0 -46
-14z"/>
<path d="M3597 5803 c-4 -3 -7 -11 -7 -17 0 -6 5 -5 12 2 6 6 9 14 7 17 -3 3
-9 2 -12 -2z"/>
<path d="M3645 5748 c-29 -34 -49 -77 -40 -86 3 -3 5 -1 5 5 0 6 15 34 34 62
40 58 40 65 1 19z"/>
<path d="M4145 5770 c-3 -5 -2 -10 4 -10 6 0 17 -12 25 -27 20 -37 20 -21 1
17 -17 33 -21 35 -30 20z"/>
<path d="M3680 5750 c-26 -26 -25 -68 2 -97 l21 -23 -31 0 c-17 0 -34 5 -37
10 -11 18 -25 10 -25 -15 0 -14 -4 -25 -9 -25 -4 0 -7 10 -6 23 1 12 0 14 -2
5 -2 -10 -9 -18 -14 -18 -14 0 -6 -53 10 -70 13 -13 14 -13 8 3 -3 9 -2 17 3
17 6 0 10 -11 10 -25 0 -14 3 -25 8 -25 11 1 47 30 36 30 -6 0 -16 -6 -23 -12
-11 -11 -13 -9 -8 10 3 12 2 22 -2 22 -4 0 -7 9 -7 20 0 11 3 20 7 20 4 0 5
10 1 23 -4 18 -3 20 9 11 15 -13 176 -17 183 -6 2 4 -14 6 -37 5 -36 -3 -39
-2 -19 7 13 6 26 19 29 30 3 11 9 17 14 14 5 -3 6 3 2 12 -4 11 -3 15 4 11 13
-8 11 19 -2 30 -4 4 -5 3 -1 -4 3 -6 2 -14 -4 -18 -5 -3 -10 1 -10 9 0 20 -38
46 -67 46 -13 0 -32 -9 -43 -20z m67 4 c12 -3 26 -19 32 -35 13 -37 -13 -71
-53 -71 -51 0 -75 67 -34 96 25 18 25 18 55 10z m-137 -174 c0 -4 -6 -10 -13
-13 -7 -3 -13 3 -13 13 0 10 6 16 13 13 7 -3 13 -9 13 -13z"/>
<path d="M3706 5737 c-27 -20 -18 -71 13 -75 13 -2 27 0 32 5 6 6 -2 8 -21 5
-26 -4 -30 -1 -30 20 0 33 18 50 42 37 10 -5 18 -7 18 -5 0 15 -39 24 -54 13z"/>
<path d="M3834 5740 c1 -8 10 -16 21 -17 15 -1 15 0 3 3 -9 3 -19 11 -21 17
-2 7 -3 5 -3 -3z"/>
<path d="M3486 5735 c-9 -26 -7 -32 5 -12 6 10 9 21 6 23 -2 3 -7 -2 -11 -11z"/>
<path d="M4150 5715 c0 -8 4 -15 10 -15 5 0 7 7 4 15 -4 8 -8 15 -10 15 -2 0
-4 -7 -4 -15z"/>
<path d="M3535 5699 c-4 -6 -5 -12 -2 -15 2 -3 7 2 10 11 7 17 1 20 -8 4z"/>
<path d="M3834 5689 c-4 -7 1 -16 11 -21 14 -8 15 -12 4 -19 -9 -6 -10 -9 -2
-9 20 0 24 17 7 30 -12 11 -12 15 -2 21 9 6 9 9 1 9 -6 0 -15 -5 -19 -11z"/>
<path d="M4090 5675 c12 -33 13 -58 1 -51 -5 3 -11 -1 -15 -9 -3 -8 -1 -15 4
-15 5 0 8 -6 6 -12 -1 -7 -1 -10 1 -5 11 18 23 5 17 -18 -5 -20 -3 -24 10 -19
19 7 19 9 5 36 -9 16 -8 19 3 16 8 -3 13 -20 13 -45 0 -30 3 -39 11 -32 7 5
18 8 25 7 7 -2 13 2 14 9 0 6 3 15 8 19 14 14 7 24 -15 23 -18 -1 -19 -2 -5
-6 14 -4 16 -8 6 -19 -20 -25 -29 -15 -30 34 0 27 -3 40 -7 30 -10 -25 -28 -8
-36 34 -4 21 -11 40 -16 43 -6 4 -6 -4 0 -20z"/>
<path d="M4176 5673 c-12 -16 -21 -22 -24 -15 -5 16 -22 15 -22 -1 0 -19 37
-18 44 0 6 14 8 14 21 -3 13 -17 14 -17 15 -1 0 9 -4 17 -10 17 -5 0 -7 7 -4
15 9 22 1 18 -20 -12z"/>
<path d="M3462 5650 c0 -14 2 -19 5 -12 2 6 2 18 0 25 -3 6 -5 1 -5 -13z"/>
<path d="M3805 5660 c-3 -5 -1 -10 4 -10 6 0 11 5 11 10 0 6 -2 10 -4 10 -3 0
-8 -4 -11 -10z"/>
<path d="M3483 5585 c0 -27 2 -38 4 -22 2 15 2 37 0 50 -2 12 -4 0 -4 -28z"/>
<path d="M4175 5621 c-3 -5 -2 -12 3 -15 5 -3 9 1 9 9 0 17 -3 19 -12 6z"/>
<path d="M4211 5585 c0 -28 -5 -65 -10 -83 -5 -17 -6 -32 -1 -32 11 0 23 96
17 135 -3 20 -4 13 -6 -20z"/>
<path d="M3550 5595 c0 -14 1 -28 2 -32 1 -5 -11 -11 -28 -14 l-29 -7 33 -1
c31 -1 32 0 32 39 0 22 -2 40 -5 40 -3 0 -5 -11 -5 -25z"/>
<path d="M3451 5594 c0 -11 3 -14 6 -6 3 7 2 16 -1 19 -3 4 -6 -2 -5 -13z"/>
<path d="M3836 5601 c-3 -5 1 -15 10 -22 14 -12 14 -14 -3 -20 -16 -7 -16 -8
-1 -8 24 -1 31 14 12 29 -12 11 -12 15 -2 21 9 6 9 9 1 9 -6 0 -14 -4 -17 -9z"/>
<path d="M4235 5581 c1 -42 10 -46 12 -5 1 19 -1 34 -5 34 -5 0 -7 -13 -7 -29z"/>
<path d="M3680 5590 c0 -5 5 -10 11 -10 5 0 7 5 4 10 -3 6 -8 10 -11 10 -2 0
-4 -4 -4 -10z"/>
<path d="M3750 5596 c0 -2 9 -6 20 -9 11 -3 18 -1 14 4 -5 9 -34 13 -34 5z"/>
<path d="M3917 5591 c4 -3 10 -10 14 -14 3 -4 11 -2 17 5 8 10 5 13 -15 14
-13 1 -21 -1 -16 -5z"/>
<path d="M4017 5579 c4 -13 8 -18 11 -10 2 7 -1 18 -6 23 -8 8 -9 4 -5 -13z"/>
<path d="M3712 5570 c0 -14 2 -19 5 -12 2 6 2 18 0 25 -3 6 -5 1 -5 -13z"/>
<path d="M3750 5565 c0 -8 4 -15 10 -15 5 0 7 7 4 15 -4 8 -8 15 -10 15 -2 0
-4 -7 -4 -15z"/>
<path d="M3993 5568 c6 -18 -16 -42 -50 -52 -13 -4 -26 -19 -30 -34 -7 -25 -8
-23 -14 18 -4 31 -6 13 -7 -60 -1 -58 2 -112 8 -120 5 -9 5 -19 -2 -27 -8 -10
-6 -13 6 -13 9 0 16 8 16 19 0 11 6 22 13 24 6 3 2 6 -10 6 -21 1 -23 5 -23
64 1 60 1 61 16 35 26 -50 104 -47 123 4 11 30 -6 76 -30 83 -10 4 -19 11 -19
16 0 6 4 8 9 4 11 -6 6 34 -5 44 -4 3 -5 -1 -1 -11z m31 -87 c14 -27 14 -31
-5 -55 -47 -59 -125 -3 -89 65 8 13 21 19 45 19 28 0 37 -6 49 -29z"/>
<path d="M3951 5478 c1 -17 3 -18 6 -5 2 9 11 17 18 17 8 0 13 -8 13 -17 0
-10 1 -25 3 -33 2 -8 -3 -15 -11 -15 -8 0 -14 6 -12 13 1 6 -2 12 -7 12 -6 0
-9 -9 -8 -20 2 -24 42 -28 50 -6 11 27 -8 71 -31 74 -18 3 -22 -1 -21 -20z"/>
<path d="M4075 5535 c0 -14 3 -25 8 -25 4 0 7 11 7 25 0 14 -3 25 -7 25 -5 0
-8 -11 -8 -25z"/>
<path d="M3455 5530 c6 -30 16 -40 12 -12 -2 12 -6 24 -10 28 -3 4 -4 -4 -2
-16z"/>
<path d="M3680 5540 c-13 -8 -12 -10 3 -10 9 0 17 5 17 10 0 12 -1 12 -20 0z"/>
<path d="M3790 5546 c0 -4 7 -14 15 -22 8 -9 15 -11 15 -6 0 5 -7 15 -15 22
-8 7 -15 9 -15 6z"/>
<path d="M3955 5540 c-3 -5 -1 -10 4 -10 6 0 11 5 11 10 0 6 -2 10 -4 10 -3 0
-8 -4 -11 -10z"/>
<path d="M4026 5541 c-3 -4 6 -8 20 -9 13 -1 24 0 24 2 0 7 -40 14 -44 7z"/>
<path d="M3690 5512 c-36 -28 -40 -72 -10 -102 23 -23 72 -26 90 -5 26 31 48
85 37 92 -5 3 -7 1 -3 -5 3 -6 2 -13 -4 -17 -5 -3 -10 1 -10 10 0 8 -12 21
-26 27 -23 11 -24 13 -7 19 14 6 11 7 -9 6 -15 -1 -41 -12 -58 -25z m87 -31
c12 -25 3 -57 -21 -73 -33 -22 -86 7 -86 48 0 55 82 74 107 25z"/>
<path d="M3707 5486 c-6 -16 1 -67 10 -76 3 -3 3 6 0 19 -4 17 -1 24 14 28 25
7 25 43 0 43 -10 0 -21 -6 -24 -14z m33 -6 c0 -5 -7 -10 -16 -10 -8 0 -12 5
-9 10 3 6 10 10 16 10 5 0 9 -4 9 -10z"/>
<path d="M3918 5533 c7 -3 16 -2 19 1 4 3 -2 6 -13 5 -11 0 -14 -3 -6 -6z"/>
<path d="M3490 5497 c12 -52 29 -87 40 -87 6 0 9 -4 6 -9 -15 -23 79 -118 153
-156 29 -15 35 -15 48 -3 12 13 12 17 -4 29 -16 13 -17 12 -5 -3 20 -25 -6
-29 -50 -6 -44 21 -46 28 -18 53 16 14 23 16 32 7 7 -7 16 -12 22 -12 5 0 -10
13 -32 30 -23 16 -54 48 -68 70 -15 22 -31 40 -36 40 -5 0 -7 4 -4 9 4 5 1 20
-4 33 -10 22 -10 22 -7 -4 3 -19 0 -28 -10 -28 -7 0 -16 -7 -20 -16 -5 -14 -8
-12 -19 7 -7 13 -13 34 -14 46 0 12 -4 24 -9 27 -5 4 -6 -8 -1 -27z m80 -69
c0 -10 -6 -18 -13 -18 -19 0 -27 9 -21 24 7 20 34 15 34 -6z m54 -75 c-5 -15
-4 -15 5 -3 9 13 12 13 26 -1 14 -14 14 -17 1 -29 -11 -8 -16 -9 -16 -1 0 6
-10 10 -22 10 -17 -1 -19 -2 -5 -6 9 -2 17 -11 17 -20 0 -13 -2 -13 -17 -2 -9
8 -29 32 -45 54 -28 38 -28 39 -8 47 11 4 20 15 20 25 0 12 8 5 25 -19 15 -22
22 -44 19 -55z"/>
<path d="M3583 5375 c0 -8 4 -12 9 -9 5 3 6 10 3 15 -9 13 -12 11 -12 -6z"/>
<path d="M4101 5514 c0 -11 3 -14 6 -6 3 7 2 16 -1 19 -3 4 -6 -2 -5 -13z"/>
<path d="M4227 5495 c-18 -103 -104 -212 -209 -267 -29 -15 -49 -27 -45 -28
22 -1 112 56 156 99 64 63 119 172 109 218 -2 10 -7 0 -11 -22z"/>
<path d="M3521 5494 c0 -11 3 -14 6 -6 3 7 2 16 -1 19 -3 4 -6 -2 -5 -13z"/>
<path d="M3830 5488 c0 -18 1 -18 17 -2 16 15 17 15 25 -2 8 -18 8 -18 5 0 -3
27 -47 30 -47 4z"/>
<path d="M4129 5490 c-1 -5 -2 -16 -3 -22 -1 -7 -7 -20 -14 -28 -67 -81 -90
-102 -135 -124 -28 -14 -46 -26 -39 -26 7 0 12 -12 13 -27 0 -23 2 -24 8 -10
6 17 8 17 20 4 11 -13 7 -17 -26 -26 -50 -14 -53 -14 -53 4 0 11 -12 15 -44
15 -26 0 -47 5 -50 13 -3 6 -3 0 -1 -15 2 -19 -2 -28 -13 -32 -9 -3 24 -4 73
-3 80 3 97 7 151 36 56 30 149 110 114 99 -8 -3 -24 2 -35 11 -20 16 -20 16
-2 -6 11 -12 16 -27 12 -32 -10 -17 -25 -13 -18 6 5 12 2 15 -10 10 -30 -11
-29 13 2 49 17 19 31 38 31 42 0 4 13 7 29 8 25 1 29 -2 26 -22 -1 -13 -8 -32
-16 -41 -12 -16 -11 -17 4 -3 21 19 53 95 35 84 -6 -4 -22 -9 -34 -10 -19 -2
-22 2 -19 27 4 26 -3 44 -6 19z m-74 -160 c4 -6 10 -8 14 -6 4 3 7 -3 8 -13 1
-11 -13 -27 -39 -41 l-40 -22 -21 21 c-11 11 -19 22 -16 24 16 12 75 47 81 47
4 0 10 -5 13 -10z m-165 -99 c0 -10 -66 -8 -77 2 -3 4 12 7 35 7 23 0 42 -4
42 -9z"/>
<path d="M4010 5290 c-13 -8 -12 -10 3 -10 9 0 17 5 17 10 0 12 -1 12 -20 0z"/>
<path d="M3600 5487 c0 -15 29 -63 47 -78 17 -13 17 -13 2 6 -9 11 -24 34 -32
50 -9 17 -16 26 -17 22z"/>
<path d="M4081 5463 c-16 -37 -52 -77 -97 -108 -20 -14 -33 -25 -28 -25 32 0
144 118 144 152 0 15 -8 8 -19 -19z"/>
<path d="M3812 5440 c0 -14 2 -19 5 -12 2 6 2 18 0 25 -3 6 -5 1 -5 -13z"/>
<path d="M3490 5415 c0 -5 5 -17 10 -25 5 -8 10 -10 10 -5 0 6 -5 17 -10 25
-5 8 -10 11 -10 5z"/>
<path d="M3806 5402 c-2 -4 -1 -14 4 -22 7 -11 9 -9 7 8 -1 24 -3 26 -11 14z"/>
<path d="M4115 5390 c-3 -6 1 -7 9 -4 18 7 21 14 7 14 -6 0 -13 -4 -16 -10z"/>
<path d="M3660 5386 c0 -5 78 -56 86 -56 4 0 -12 14 -34 30 -40 28 -52 35 -52
26z"/>
<path d="M3530 5346 c27 -39 65 -78 85 -88 11 -6 5 3 -13 18 -18 16 -45 43
-60 60 -15 16 -20 21 -12 10z"/>
<path d="M3809 5353 c-1 -5 -1 -11 0 -15 0 -5 -11 -8 -26 -9 -25 0 -26 -1 -8
-9 11 -4 24 -4 29 1 10 9 18 39 10 39 -2 0 -5 -3 -5 -7z"/>
<path d="M3733 5296 c1 -4 20 -10 42 -12 21 -2 42 -9 47 -16 6 -10 8 -8 8 5 0
9 -6 17 -12 18 -7 0 -4 4 7 8 12 5 -2 7 -38 7 -31 -1 -56 -5 -54 -10z"/>
<path d="M3878 5303 c7 -3 16 -2 19 1 4 3 -2 6 -13 5 -11 0 -14 -3 -6 -6z"/>
<path d="M3670 5296 c0 -2 7 -7 16 -10 8 -3 12 -2 9 4 -6 10 -25 14 -25 6z"/>
<path d="M3870 5281 c0 -10 19 -25 25 -20 1 2 -3 10 -11 17 -8 7 -14 8 -14 3z"/>
<path d="M4759 5238 c-5 -18 -6 -38 -1 -34 7 8 12 36 6 36 -2 0 -4 -1 -5 -2z"/>
<path d="M5269 5223 c-13 -16 -12 -17 4 -4 9 7 17 15 17 17 0 8 -8 3 -21 -13z"/>
<path d="M2196 5222 c-3 -5 1 -9 9 -9 8 0 12 4 9 9 -3 4 -7 8 -9 8 -2 0 -6 -4
-9 -8z"/>
<path d="M2356 5222 c-3 -5 1 -9 9 -9 8 0 12 4 9 9 -3 4 -7 8 -9 8 -2 0 -6 -4
-9 -8z"/>
<path d="M2516 5222 c-3 -5 1 -9 9 -9 8 0 12 4 9 9 -3 4 -7 8 -9 8 -2 0 -6 -4
-9 -8z"/>
<path d="M3690 5215 c14 -8 32 -14 40 -14 8 0 0 6 -19 14 -42 19 -54 19 -21 0z"/>
<path d="M3748 5223 c7 -3 16 -2 19 1 4 3 -2 6 -13 5 -11 0 -14 -3 -6 -6z"/>
<path d="M4785 5219 c-3 -4 2 -6 10 -5 21 3 28 13 10 13 -9 0 -18 -4 -20 -8z"/>
<path d="M4920 5215 c-11 -13 -11 -18 0 -28 10 -9 11 -9 6 1 -4 7 -2 19 4 27
7 8 10 15 7 15 -2 0 -10 -7 -17 -15z"/>
<path d="M2153 5205 c0 -8 4 -12 9 -9 5 3 6 10 3 15 -9 13 -12 11 -12 -6z"/>
<path d="M2295 5210 c-4 -6 -11 -8 -16 -5 -5 4 -9 1 -9 -4 0 -16 16 -13 30 4
7 8 10 15 7 15 -3 0 -9 -5 -12 -10z"/>
<path d="M2455 5210 c-4 -6 -11 -8 -16 -5 -5 4 -9 1 -9 -4 0 -16 16 -13 30 4
7 8 10 15 7 15 -3 0 -9 -5 -12 -10z"/>
<path d="M2617 5210 c7 -8 27 -15 44 -16 17 -2 28 0 25 3 -3 3 -16 7 -28 7
-13 1 -30 5 -38 10 -12 7 -13 6 -3 -4z"/>
<path d="M2701 5204 c0 -11 3 -14 6 -6 3 7 2 16 -1 19 -3 4 -6 -2 -5 -13z"/>
<path d="M2758 5213 c7 -3 16 -2 19 1 4 3 -2 6 -13 5 -11 0 -14 -3 -6 -6z"/>
<path d="M2862 5204 c10 -10 20 -16 22 -13 3 3 -5 11 -17 18 -21 13 -21 12 -5
-5z"/>
<path d="M2987 5199 c7 -7 15 -10 18 -7 3 3 -2 9 -12 12 -14 6 -15 5 -6 -5z"/>
<path d="M3073 5193 c0 -11 7 -20 14 -20 10 0 10 4 1 16 -7 9 -13 18 -15 20
-1 2 -1 -5 0 -16z"/>
<path d="M3151 5207 c2 -1 13 -9 24 -17 19 -14 19 -14 6 3 -7 9 -18 17 -24 17
-6 0 -8 -1 -6 -3z"/>
<path d="M3935 5200 c-16 -7 -17 -9 -3 -9 9 -1 20 4 23 9 7 11 7 11 -20 0z"/>
<path d="M4591 5207 c2 -2 11 -8 20 -15 12 -9 16 -9 16 1 0 7 -9 14 -20 14
-11 1 -18 1 -16 0z"/>
<path d="M4653 5193 c0 -10 4 -10 16 -1 9 7 18 13 20 15 2 1 -5 1 -16 0 -11 0
-20 -7 -20 -14z"/>
<path d="M5071 5207 c2 -2 11 -8 20 -15 12 -9 16 -9 16 1 0 7 -9 14 -20 14
-11 1 -18 1 -16 0z"/>
<path d="M5136 5202 c-3 -4 4 -9 15 -9 23 -2 25 3 4 10 -8 4 -16 3 -19 -1z"/>
<path d="M5339 5193 c-13 -16 -12 -17 4 -4 16 13 21 21 13 21 -2 0 -10 -8 -17
-17z"/>
<path d="M2955 5189 c-4 -6 -5 -12 -2 -15 2 -3 7 2 10 11 7 17 1 20 -8 4z"/>
<path d="M3758 5193 c7 -3 16 -2 19 1 4 3 -2 6 -13 5 -11 0 -14 -3 -6 -6z"/>
<path d="M4510 5196 c0 -2 8 -10 18 -17 15 -13 16 -12 3 4 -13 16 -21 21 -21
13z"/>
<path d="M4876 5187 c3 -10 9 -15 12 -12 3 3 0 11 -7 18 -10 9 -11 8 -5 -6z"/>
<path d="M4991 5187 c-8 -10 -7 -14 2 -14 8 0 14 6 14 14 0 7 -1 13 -2 13 -2
0 -8 -6 -14 -13z"/>
<path d="M2760 5174 c-11 -12 -10 -18 5 -32 18 -16 18 -16 6 1 -11 14 -11 20
-1 32 7 8 10 15 7 15 -2 0 -10 -7 -17 -16z"/>
<path d="M3116 5178 c3 -5 10 -6 15 -3 13 9 11 12 -6 12 -8 0 -12 -4 -9 -9z"/>
<path d="M3253 5170 c-1 -11 2 -20 7 -20 4 0 7 7 6 15 -3 23 -12 26 -13 5z"/>
<path d="M3818 5183 c17 -2 47 -2 65 0 17 2 3 4 -33 4 -36 0 -50 -2 -32 -4z"/>
<path d="M4947 5179 c7 -7 15 -10 18 -7 3 3 -2 9 -12 12 -14 6 -15 5 -6 -5z"/>
<path d="M2894 5169 c-3 -6 -2 -15 3 -20 5 -5 9 -1 9 11 0 23 -2 24 -12 9z"/>
<path d="M5134 5160 c0 -13 4 -16 10 -10 7 7 7 13 0 20 -6 6 -10 3 -10 -10z"/>
<path d="M2074 5158 c-4 -7 -4 -10 1 -6 4 4 15 2 24 -5 14 -11 14 -10 2 6 -16
20 -18 21 -27 5z"/>
<path d="M2170 5161 c0 -6 4 -13 10 -16 6 -3 7 1 4 9 -7 18 -14 21 -14 7z"/>
<path d="M2330 5161 c0 -6 4 -13 10 -16 6 -3 7 1 4 9 -7 18 -14 21 -14 7z"/>
<path d="M2490 5161 c0 -6 4 -13 10 -16 6 -3 7 1 4 9 -7 18 -14 21 -14 7z"/>
<path d="M2660 5160 c-9 -6 -10 -10 -3 -10 6 0 15 5 18 10 8 12 4 12 -15 0z"/>
<path d="M4494 5162 c4 -3 14 -7 22 -8 9 -1 13 0 10 4 -4 3 -14 7 -22 8 -9 1
-13 0 -10 -4z"/>
<path d="M4910 5159 c0 -5 5 -7 10 -4 6 3 10 8 10 11 0 2 -4 4 -10 4 -5 0 -10
-5 -10 -11z"/>
<path d="M5016 5162 c-3 -5 1 -9 9 -9 8 0 12 4 9 9 -3 4 -7 8 -9 8 -2 0 -6 -4
-9 -8z"/>
<path d="M5060 5160 c-9 -6 -10 -10 -3 -10 6 0 15 5 18 10 8 12 4 12 -15 0z"/>
<path d="M5335 5161 c-3 -5 -2 -12 3 -15 5 -3 9 1 9 9 0 17 -3 19 -12 6z"/>
<path d="M4430 5156 c0 -2 8 -10 18 -17 15 -13 16 -12 3 4 -13 16 -21 21 -21
13z"/>
<path d="M4949 5143 c-13 -16 -12 -17 4 -4 16 13 21 21 13 21 -2 0 -10 -8 -17
-17z"/>
<path d="M3100 5146 c0 -2 8 -10 18 -17 15 -13 16 -12 3 4 -13 16 -21 21 -21
13z"/>
<path d="M2050 5137 c0 -2 6 -10 14 -16 11 -9 16 -9 22 1 4 7 4 10 -1 6 -4 -4
-14 -3 -22 3 -7 6 -13 9 -13 6z"/>
<path d="M3344 5118 l-19 -23 23 19 c21 18 27 26 19 26 -2 0 -12 -10 -23 -22z"/>
<path d="M2015 5120 c-3 -5 -1 -10 4 -10 6 0 11 5 11 10 0 6 -2 10 -4 10 -3 0
-8 -4 -11 -10z"/>
<path d="M3219 5113 c-13 -17 -13 -17 6 -3 11 8 22 16 24 17 2 2 0 3 -6 3 -6
0 -17 -8 -24 -17z"/>
<path d="M4350 5120 c0 -5 5 -10 11 -10 5 0 7 5 4 10 -3 6 -8 10 -11 10 -2 0
-4 -4 -4 -10z"/>
<path d="M5019 5114 c-7 -8 -6 -14 1 -19 6 -4 9 -1 8 6 -2 8 9 13 32 13 26 1
34 -3 32 -14 -2 -8 0 -11 4 -7 4 4 9 13 10 20 2 17 -73 17 -87 1z"/>
<path d="M4435 5109 c-4 -6 -5 -12 -2 -15 2 -3 7 2 10 11 7 17 1 20 -8 4z"/>
<path d="M3260 5106 c0 -2 8 -10 18 -17 15 -13 16 -12 3 4 -13 16 -21 21 -21
13z"/>
<path d="M3380 5106 c0 -2 8 -10 18 -17 15 -13 16 -12 3 4 -13 16 -21 21 -21
13z"/>
<path d="M5390 5096 c7 -7 13 -7 20 0 6 6 3 10 -10 10 -13 0 -16 -4 -10 -10z"/>
<path d="M2074 5089 c-3 -6 -2 -15 3 -20 5 -5 9 -1 9 11 0 23 -2 24 -12 9z"/>
<path d="M4375 5090 c-4 -6 -12 -7 -18 -4 -7 4 -9 4 -5 -1 4 -4 2 -15 -4 -24
-10 -12 -7 -12 8 2 11 9 23 15 26 12 2 -3 5 2 5 10 0 18 -3 19 -12 5z"/>
<path d="M2054 5040 c0 -13 4 -16 10 -10 7 7 7 13 0 20 -6 6 -10 3 -10 -10z"/>
<path d="M4257 5053 c-10 -9 -9 -23 1 -23 5 0 9 7 9 15 0 17 -1 18 -10 8z"/>
<path d="M4294 5040 c0 -13 4 -16 10 -10 7 7 7 13 0 20 -6 6 -10 3 -10 -10z"/>
<path d="M3391 5047 c2 -2 11 -8 20 -15 12 -9 16 -9 16 1 0 7 -9 14 -20 14
-11 1 -18 1 -16 0z"/>
<path d="M3459 5033 c-13 -17 -13 -17 6 -3 11 8 22 16 24 17 2 2 0 3 -6 3 -6
0 -17 -8 -24 -17z"/>
<path d="M3516 5038 c3 -5 10 -6 15 -3 13 9 11 12 -6 12 -8 0 -12 -4 -9 -9z"/>
<path d="M5376 5038 c3 -4 11 -5 19 -1 21 7 19 12 -4 10 -11 0 -18 -5 -15 -9z"/>
<path d="M3507 5019 c7 -7 15 -10 18 -7 3 3 -2 9 -12 12 -14 6 -15 5 -6 -5z"/>
<path d="M4233 5006 c0 -15 22 -15 34 0 4 5 4 6 -1 2 -5 -4 -14 -3 -21 2 -8 7
-12 5 -12 -4z"/>
<path d="M5379 5008 c15 -21 31 -23 31 -6 0 6 -3 8 -7 5 -3 -4 -13 -1 -22 6
-14 11 -14 10 -2 -5z"/>
<path d="M2006 4998 c4 -5 9 -7 12 -4 3 3 15 -2 26 -11 21 -18 21 -18 3 3 -16
20 -52 30 -41 12z"/>
<path d="M3456 4998 c3 -5 10 -6 15 -3 13 9 11 12 -6 12 -8 0 -12 -4 -9 -9z"/>
<path d="M3553 4967 c-1 -11 -1 -18 0 -16 2 2 8 11 15 20 9 12 9 16 -1 16 -7
0 -14 -9 -14 -20z"/>
<path d="M3590 4986 c0 -2 7 -7 16 -10 8 -3 12 -2 9 4 -6 10 -25 14 -25 6z"/>
<path d="M4273 4967 c-1 -11 -1 -18 0 -16 2 2 8 11 15 20 9 12 9 16 -1 16 -7
0 -14 -9 -14 -20z"/>
<path d="M5425 4980 c-3 -6 1 -7 9 -4 18 7 21 14 7 14 -6 0 -13 -4 -16 -10z"/>
<path d="M5376 4947 c3 -10 9 -15 12 -12 3 3 0 11 -7 18 -10 9 -11 8 -5 -6z"/>
<path d="M3574 4926 c1 -8 5 -18 8 -22 4 -3 5 1 4 10 -1 8 -5 18 -8 22 -4 3
-5 -1 -4 -10z"/>
<path d="M3660 4920 c-9 -6 -10 -10 -3 -10 6 0 15 5 18 10 8 12 4 12 -15 0z"/>
<path d="M4153 4915 c0 -8 4 -12 9 -9 4 3 8 9 8 15 0 5 -4 9 -8 9 -5 0 -9 -7
-9 -15z"/>
<path d="M5395 4919 c-3 -4 2 -6 10 -5 21 3 28 13 10 13 -9 0 -18 -4 -20 -8z"/>
<path d="M5440 4915 c-7 -8 -9 -15 -5 -15 5 0 0 -10 -11 -22 l-19 -23 23 19
c12 11 20 21 17 24 -3 3 0 11 6 19 6 7 9 13 6 13 -2 0 -10 -7 -17 -15z"/>
<path d="M2016 4878 c3 -5 10 -6 15 -2 5 3 18 0 27 -8 15 -12 16 -11 4 4 -13
16 -56 22 -46 6z"/>
<path d="M2093 4873 c0 -9 4 -10 14 -2 7 6 13 12 13 14 0 1 -6 2 -13 2 -8 0
-14 -6 -14 -14z"/>
<path d="M3619 4873 c-13 -17 -13 -17 6 -3 11 8 22 16 24 17 2 2 0 3 -6 3 -6
0 -17 -8 -24 -17z"/>
<path d="M4120 4885 c0 -2 6 -8 13 -14 10 -8 14 -7 14 2 0 8 -6 14 -14 14 -7
0 -13 -1 -13 -2z"/>
<path d="M2147 4859 c7 -7 15 -10 18 -7 3 3 -2 9 -12 12 -14 6 -15 5 -6 -5z"/>
<path d="M3639 4853 c-13 -16 -12 -17 4 -4 16 13 21 21 13 21 -2 0 -10 -8 -17
-17z"/>
<path d="M2070 4836 c7 -7 13 -7 20 0 6 6 3 10 -10 10 -13 0 -16 -4 -10 -10z"/>
<path d="M3670 4836 c0 -2 8 -10 18 -17 15 -13 16 -12 3 4 -13 16 -21 21 -21
13z"/>
<path d="M5440 4820 c-9 -6 -10 -10 -3 -10 6 0 15 5 18 10 8 12 4 12 -15 0z"/>
<path d="M2194 4809 c-3 -6 -2 -15 3 -20 5 -5 9 -1 9 11 0 23 -2 24 -12 9z"/>
<path d="M3650 4816 c0 -2 8 -10 18 -17 15 -13 16 -12 3 4 -13 16 -21 21 -21
13z"/>
<path d="M2125 4799 c-3 -4 2 -6 10 -5 21 3 28 13 10 13 -9 0 -18 -4 -20 -8z"/>
<path d="M4110 4776 c7 -7 13 -7 20 0 6 6 3 10 -10 10 -13 0 -16 -4 -10 -10z"/>
<path d="M2180 4760 c-8 -5 -10 -10 -5 -10 6 0 17 5 25 10 8 5 11 10 5 10 -5
0 -17 -5 -25 -10z"/>
<path d="M4071 4747 c-13 -21 -12 -21 5 -5 10 10 16 20 13 22 -3 3 -11 -5 -18
-17z"/>
<path d="M2135 4740 c-3 -5 -1 -10 4 -10 6 0 11 5 11 10 0 6 -2 10 -4 10 -3 0
-8 -4 -11 -10z"/>
<path d="M5493 4725 c0 -8 4 -12 9 -9 5 3 6 10 3 15 -9 13 -12 11 -12 -6z"/>
<path d="M2166 4718 c3 -5 10 -6 15 -3 13 9 11 12 -6 12 -8 0 -12 -4 -9 -9z"/>
<path d="M4016 4722 c-3 -5 1 -9 9 -9 8 0 12 4 9 9 -3 4 -7 8 -9 8 -2 0 -6 -4
-9 -8z"/>
<path d="M5490 4696 c0 -2 8 -10 18 -17 15 -13 16 -12 3 4 -13 16 -21 21 -21
13z"/>
<path d="M4073 4683 c4 -3 1 -13 -6 -22 -11 -14 -10 -14 6 -2 20 15 22 31 5
31 -6 0 -8 -3 -5 -7z"/>
<path d="M3759 4668 c-4 -12 -5 -57 0 -53 6 6 10 55 4 55 -1 0 -3 -1 -4 -2z"/>
<path d="M4013 4647 c0 -7 9 -14 20 -14 11 -1 18 -1 16 0 -2 2 -11 8 -20 15
-12 9 -16 9 -16 -1z"/>
<path d="M3800 4615 c-7 -8 -16 -13 -20 -10 -4 3 -14 -3 -21 -13 -12 -15 -12
-16 2 -5 9 7 18 11 21 8 3 -3 13 4 23 15 10 11 16 20 13 20 -3 0 -11 -7 -18
-15z"/>
<path d="M3969 4603 c-13 -16 -12 -17 4 -4 16 13 21 21 13 21 -2 0 -10 -8 -17
-17z"/>
<path d="M3774 4569 c-3 -6 -2 -15 3 -20 5 -5 9 -1 9 11 0 23 -2 24 -12 9z"/>
<path d="M3951 4567 c-8 -10 -7 -14 2 -14 8 0 14 6 14 14 0 7 -1 13 -2 13 -2
0 -8 -6 -14 -13z"/>
<path d="M2134 4542 c4 -3 14 -7 22 -8 9 -1 13 0 10 4 -4 3 -14 7 -22 8 -9 1
-13 0 -10 -4z"/>
<path d="M3830 4526 c0 -2 7 -7 16 -10 8 -3 12 -2 9 4 -6 10 -25 14 -25 6z"/>
<path d="M3793 4503 c4 -3 1 -13 -6 -22 -11 -14 -10 -14 5 -2 16 12 16 31 1
31 -4 0 -3 -3 0 -7z"/>
<path d="M3840 4480 c-9 -6 -10 -10 -3 -10 6 0 15 5 18 10 8 12 4 12 -15 0z"/>
<path d="M3957 4475 c-4 -8 -3 -16 1 -19 4 -3 9 4 9 15 2 23 -3 25 -10 4z"/>
<path d="M2135 4460 c-3 -5 -1 -10 4 -10 6 0 11 5 11 10 0 6 -2 10 -4 10 -3 0
-8 -4 -11 -10z"/>
<path d="M3916 4462 c-3 -5 1 -9 9 -9 8 0 12 4 9 9 -3 4 -7 8 -9 8 -2 0 -6 -4
-9 -8z"/>
<path d="M3952 4411 c7 -9 13 -18 15 -20 1 -2 1 5 0 16 0 11 -7 20 -14 20 -10
0 -10 -4 -1 -16z"/>
<path d="M2135 4409 c-4 -6 -5 -12 -2 -15 2 -3 7 2 10 11 7 17 1 20 -8 4z"/>
<path d="M3835 4380 c3 -5 8 -10 11 -10 2 0 4 5 4 10 0 6 -5 10 -11 10 -5 0
-7 -4 -4 -10z"/>
<path d="M4750 4916 c0 -2 8 -10 18 -17 15 -13 16 -12 3 4 -13 16 -21 21 -21
13z"/>
<path d="M4833 4887 c-1 -11 -1 -18 0 -16 2 2 8 11 15 20 9 12 9 16 -1 16 -7
0 -14 -9 -14 -20z"/>
<path d="M4707 4879 c7 -7 15 -10 18 -7 3 3 -2 9 -12 12 -14 6 -15 5 -6 -5z"/>
<path d="M4794 4860 c0 -13 4 -16 10 -10 7 7 7 13 0 20 -6 6 -10 3 -10 -10z"/>
<path d="M4856 4847 c3 -10 9 -15 12 -12 3 3 0 11 -7 18 -10 9 -11 8 -5 -6z"/>
<path d="M4939 4848 c15 -21 31 -23 31 -6 0 6 -3 8 -7 5 -3 -4 -13 -1 -22 6
-14 11 -14 10 -2 -5z"/>
<path d="M4706 4818 c3 -4 9 -8 15 -8 5 0 9 4 9 8 0 5 -7 9 -15 9 -8 0 -12 -4
-9 -9z"/>
<path d="M4677 4795 c-4 -8 -3 -16 1 -19 4 -3 9 4 9 15 2 23 -3 25 -10 4z"/>
<path d="M4671 4733 c7 -12 15 -20 18 -17 3 2 -3 12 -13 22 -17 16 -18 16 -5
-5z"/>
<path d="M2873 4855 c0 -8 4 -12 9 -9 4 3 8 9 8 15 0 5 -4 9 -8 9 -5 0 -9 -7
-9 -15z"/>
<path d="M2934 4835 c0 -13 3 -22 7 -19 8 4 6 30 -2 38 -3 3 -5 -5 -5 -19z"/>
<path d="M2964 4842 c4 -3 14 -7 22 -8 9 -1 13 0 10 4 -4 3 -14 7 -22 8 -9 1
-13 0 -10 -4z"/>
<path d="M3025 4819 c-3 -4 2 -6 10 -5 21 3 28 13 10 13 -9 0 -18 -4 -20 -8z"/>
<path d="M2858 4808 c13 -16 56 -22 46 -6 -3 5 -10 6 -15 2 -5 -3 -18 0 -27 8
-15 12 -16 11 -4 -4z"/>
<path d="M3010 4766 c0 -2 7 -7 16 -10 8 -3 12 -2 9 4 -6 10 -25 14 -25 6z"/>
<path d="M2990 4756 c0 -2 8 -10 18 -17 15 -13 16 -12 3 4 -13 16 -21 21 -21
13z"/>
<path d="M3046 4725 c-11 -8 -15 -15 -9 -15 6 0 16 7 23 15 16 19 11 19 -14 0z"/>
<path d="M2919 4713 c-12 -16 -12 -17 2 -6 9 7 20 9 24 5 5 -4 5 -1 1 6 -9 16
-11 15 -27 -5z"/>
<path d="M3024 4678 l-19 -23 23 19 c21 18 27 26 19 26 -2 0 -12 -10 -23 -22z"/>
<path d="M2913 4672 c2 -12 6 -24 10 -28 3 -4 4 4 2 16 -2 12 -7 25 -10 28 -3
3 -4 -4 -2 -16z"/>
<path d="M2935 4629 c-4 -6 -5 -12 -2 -15 2 -3 7 2 10 11 7 17 1 20 -8 4z"/>
<path d="M2990 4636 c0 -2 8 -10 18 -17 15 -13 16 -12 3 4 -13 16 -21 21 -21
13z"/>
<path d="M3049 4603 c-13 -16 -12 -17 4 -4 16 13 21 21 13 21 -2 0 -10 -8 -17
-17z"/>
<path d="M2850 4576 c0 -2 8 -10 18 -17 15 -13 16 -12 3 4 -13 16 -21 21 -21
13z"/>
<path d="M2919 4558 c-5 -19 -8 -50 -4 -46 7 7 15 48 9 48 -2 0 -4 -1 -5 -2z"/>
<path d="M2880 4540 c-9 -6 -10 -10 -3 -10 6 0 15 5 18 10 8 12 4 12 -15 0z"/>
<path d="M2846 4522 c-3 -5 1 -9 9 -9 8 0 12 4 9 9 -3 4 -7 8 -9 8 -2 0 -6 -4
-9 -8z"/>
<path d="M2919 4473 c-12 -16 -12 -17 2 -6 9 7 20 9 24 5 5 -4 5 -1 1 6 -9 16
-11 15 -27 -5z"/>
<path d="M3030 4480 c0 -5 5 -10 11 -10 5 0 7 5 4 10 -3 6 -8 10 -11 10 -2 0
-4 -4 -4 -10z"/>
<path d="M3055 4450 c-4 -6 -11 -7 -17 -4 -7 4 -8 2 -4 -5 6 -9 11 -9 22 0 14
11 18 19 10 19 -3 0 -8 -5 -11 -10z"/>
<path d="M3069 4423 c-13 -16 -12 -17 4 -4 16 13 21 21 13 21 -2 0 -10 -8 -17
-17z"/>
<path d="M3023 4402 c10 -10 14 -22 10 -27 -5 -4 -2 -5 5 -1 11 6 10 12 -4 27
-9 10 -19 19 -22 19 -3 0 2 -8 11 -18z"/>
<path d="M2855 4401 c-3 -5 -2 -12 3 -15 5 -3 9 1 9 9 0 17 -3 19 -12 6z"/>
<path d="M4656 4593 c-6 -14 -5 -15 5 -6 7 7 10 15 7 18 -3 3 -9 -2 -12 -12z"/>
<path d="M5071 4647 c2 -2 11 -8 20 -15 12 -9 16 -9 16 1 0 7 -9 14 -20 14
-11 1 -18 1 -16 0z"/>
<path d="M5030 4616 c7 -7 13 -7 20 0 6 6 3 10 -10 10 -13 0 -16 -4 -10 -10z"/>
<path d="M5073 4594 c0 -9 4 -11 12 -4 7 5 14 9 16 7 2 -1 3 0 1 2 -7 11 -29
7 -29 -5z"/>
<path d="M5064 4542 c4 -3 14 -7 22 -8 9 -1 13 0 10 4 -4 3 -14 7 -22 8 -9 1
-13 0 -10 -4z"/>
<path d="M4681 4456 c-9 -11 -9 -16 1 -22 7 -4 10 -4 6 1 -4 4 -3 14 3 22 6 7
9 13 6 13 -2 0 -10 -6 -16 -14z"/>
<path d="M5160 4455 c-7 -8 -16 -13 -20 -10 -10 6 -7 -22 4 -32 4 -4 6 -1 4 7
-2 9 3 14 12 12 8 -2 12 0 8 4 -4 4 -3 13 3 21 6 7 9 13 6 13 -2 0 -10 -7 -17
-15z"/>
<path d="M4655 4400 c-2 -3 5 -7 16 -7 10 -1 19 2 19 6 0 9 -29 10 -35 1z"/>
<path d="M5164 4402 c4 -3 14 -7 22 -8 9 -1 13 0 10 4 -4 3 -14 7 -22 8 -9 1
-13 0 -10 -4z"/>
<path d="M5230 4403 c0 -6 8 -17 18 -24 16 -13 16 -13 2 6 -8 11 -16 22 -17
24 -2 2 -3 0 -3 -6z"/>
<path d="M5434 4394 c1 -8 4 -15 7 -16 2 -2 3 -1 2 1 -2 2 2 9 7 16 7 8 5 12
-4 12 -8 0 -13 -6 -12 -13z"/>
<path d="M5496 4487 c3 -10 9 -15 12 -12 3 3 0 11 -7 18 -10 9 -11 8 -5 -6z"/>
<path d="M2135 3220 c3 -5 8 -10 11 -10 2 0 4 5 4 10 0 6 -5 10 -11 10 -5 0
-7 -4 -4 -10z"/>
<path d="M3970 3216 c0 -2 8 -10 18 -17 15 -13 16 -12 3 4 -13 16 -21 21 -21
13z"/>
<path d="M2893 3193 c0 -10 4 -10 16 -1 9 7 18 13 20 15 2 1 -5 1 -16 0 -11 0
-20 -7 -20 -14z"/>
<path d="M3933 3195 c0 -8 4 -12 9 -9 5 3 6 10 3 15 -9 13 -12 11 -12 -6z"/>
<path d="M2911 3147 c-13 -21 -12 -21 5 -5 10 10 16 20 13 22 -3 3 -11 -5 -18
-17z"/>
<path d="M3987 3139 c7 -7 15 -10 18 -7 3 3 -2 9 -12 12 -14 6 -15 5 -6 -5z"/>
<path d="M2862 3124 c10 -10 20 -16 22 -13 3 3 -5 11 -17 18 -21 13 -21 12 -5
-5z"/>
<path d="M2894 3089 c-3 -6 -2 -15 3 -20 5 -5 9 -1 9 11 0 23 -2 24 -12 9z"/>
<path d="M2134 3049 c-3 -6 -2 -15 3 -20 5 -5 9 -1 9 11 0 23 -2 24 -12 9z"/>
<path d="M2911 3027 c-8 -10 -7 -14 2 -14 8 0 14 6 14 14 0 7 -1 13 -2 13 -2
0 -8 -6 -14 -13z"/>
<path d="M2870 3019 c0 -5 5 -7 10 -4 6 3 10 8 10 11 0 2 -4 4 -10 4 -5 0 -10
-5 -10 -11z"/>
<path d="M3999 3013 c-13 -16 -12 -17 4 -4 16 13 21 21 13 21 -2 0 -10 -8 -17
-17z"/>
<path d="M4030 3003 c0 -6 8 -17 18 -24 16 -13 16 -13 2 6 -8 11 -16 22 -17
24 -2 2 -3 0 -3 -6z"/>
<path d="M2136 2978 c3 -5 10 -6 15 -3 13 9 11 12 -6 12 -8 0 -12 -4 -9 -9z"/>
<path d="M2915 2981 c-3 -5 -2 -12 3 -15 5 -3 9 1 9 9 0 17 -3 19 -12 6z"/>
<path d="M3995 2951 c-3 -5 -2 -12 3 -15 5 -3 9 1 9 9 0 17 -3 19 -12 6z"/>
<path d="M5559 2933 c-13 -16 -12 -17 4 -4 16 13 21 21 13 21 -2 0 -10 -8 -17
-17z"/>
<path d="M5510 2918 c0 -6 3 -8 7 -5 3 4 13 1 22 -6 14 -11 14 -10 2 6 -15 20
-31 22 -31 5z"/>
<path d="M4065 2900 c-3 -6 1 -7 9 -4 18 7 21 14 7 14 -6 0 -13 -4 -16 -10z"/>
<path d="M4080 2886 c0 -2 8 -10 18 -17 15 -13 16 -12 3 4 -13 16 -21 21 -21
13z"/>
<path d="M5496 2873 c-6 -14 -5 -15 5 -6 7 7 10 15 7 18 -3 3 -9 -2 -12 -12z"/>
<path d="M5557 2872 c-15 -16 -15 -19 -2 -19 8 0 13 3 10 5 -3 3 0 11 6 19 17
20 5 16 -14 -5z"/>
<path d="M4033 2853 c0 -9 4 -10 14 -2 7 6 13 12 13 14 0 1 -6 2 -13 2 -8 0
-14 -6 -14 -14z"/>
<path d="M5515 2849 c-4 -6 -5 -12 -2 -15 2 -3 7 2 10 11 7 17 1 20 -8 4z"/>
<path d="M2890 2846 c0 -2 7 -7 16 -10 8 -3 12 -2 9 4 -6 10 -25 14 -25 6z"/>
<path d="M4073 2831 c0 -11 5 -18 9 -15 4 3 5 11 1 19 -7 21 -12 19 -10 -4z"/>
<path d="M4114 2828 c-19 -23 -19 -23 2 -5 11 9 24 14 29 10 4 -5 5 -2 1 5 -9
16 -10 16 -32 -10z"/>
<path d="M2130 2816 c0 -2 8 -10 18 -17 15 -13 16 -12 3 4 -13 16 -21 21 -21
13z"/>
<path d="M4126 2805 c-18 -14 -18 -14 1 -12 11 0 20 7 20 14 0 7 -1 13 -1 13
-1 0 -9 -7 -20 -15z"/>
<path d="M2910 2800 c0 -5 5 -10 11 -10 5 0 7 5 4 10 -3 6 -8 10 -11 10 -2 0
-4 -4 -4 -10z"/>
<path d="M2195 2781 c-3 -5 -2 -12 3 -15 5 -3 9 1 9 9 0 17 -3 19 -12 6z"/>
<path d="M3001 2776 c-9 -11 -9 -16 1 -22 7 -4 10 -4 6 1 -4 4 -3 14 3 22 6 7
9 13 6 13 -2 0 -10 -6 -16 -14z"/>
<path d="M4156 2781 c-3 -5 2 -15 12 -22 15 -12 16 -12 5 2 -7 9 -10 19 -6 22
3 4 4 7 0 7 -3 0 -8 -4 -11 -9z"/>
<path d="M2935 2770 c-4 -6 -10 -8 -15 -5 -5 3 -11 1 -14 -4 -8 -13 22 -7 36
7 7 7 9 12 6 12 -4 0 -10 -5 -13 -10z"/>
<path d="M2954 2758 c-4 -7 -4 -10 1 -6 4 4 15 2 24 -5 14 -11 14 -10 2 6 -16
20 -18 21 -27 5z"/>
<path d="M4093 2755 c0 -8 4 -12 9 -9 4 3 8 9 8 15 0 5 -4 9 -8 9 -5 0 -9 -7
-9 -15z"/>
<path d="M2037 2715 c-4 -8 -3 -16 1 -19 4 -3 9 4 9 15 2 23 -3 25 -10 4z"/>
<path d="M4111 2727 c2 -1 13 -9 24 -17 19 -14 19 -14 6 3 -7 9 -18 17 -24 17
-6 0 -8 -1 -6 -3z"/>
<path d="M2066 2702 c-2 -4 4 -8 14 -8 10 0 16 4 14 8 -3 4 -9 8 -14 8 -5 0
-11 -4 -14 -8z"/>
<path d="M5560 2695 c-7 -9 -11 -17 -9 -20 3 -2 10 5 17 15 14 24 10 26 -8 5z"/>
<path d="M5517 2668 c19 -21 31 -25 14 -5 -6 8 -9 16 -6 19 3 2 -2 5 -10 5
-13 0 -13 -3 2 -19z"/>
<path d="M4229 2663 c-13 -16 -12 -17 4 -4 16 13 21 21 13 21 -2 0 -10 -8 -17
-17z"/>
<path d="M3030 2666 c0 -2 7 -7 16 -10 8 -3 12 -2 9 4 -6 10 -25 14 -25 6z"/>
<path d="M4173 2647 c0 -8 6 -14 14 -14 9 0 10 4 2 14 -6 7 -12 13 -14 13 -1
0 -2 -6 -2 -13z"/>
<path d="M5500 2646 c0 -2 8 -10 18 -17 15 -13 16 -12 3 4 -13 16 -21 21 -21
13z"/>
<path d="M4229 2617 c6 -8 7 -18 3 -22 -4 -5 -1 -5 6 -1 10 6 10 11 1 22 -6 8
-14 14 -16 14 -3 0 0 -6 6 -13z"/>
<path d="M2015 2609 c-4 -6 -5 -12 -2 -15 2 -3 7 2 10 11 7 17 1 20 -8 4z"/>
<path d="M3025 2600 c10 -11 20 -20 23 -20 3 0 -3 9 -13 20 -10 11 -20 20 -23
20 -3 0 3 -9 13 -20z"/>
<path d="M5555 2591 c-3 -5 -2 -12 3 -15 5 -3 9 1 9 9 0 17 -3 19 -12 6z"/>
<path d="M2065 2580 c-3 -6 1 -7 9 -4 18 7 21 14 7 14 -6 0 -13 -4 -16 -10z"/>
<path d="M3060 2586 c0 -2 8 -10 18 -17 15 -13 16 -12 3 4 -13 16 -21 21 -21
13z"/>
<path d="M4240 2580 c-9 -6 -10 -10 -3 -10 6 0 15 5 18 10 8 12 4 12 -15 0z"/>
<path d="M4306 2578 c3 -5 10 -6 15 -3 13 9 11 12 -6 12 -8 0 -12 -4 -9 -9z"/>
<path d="M5030 2586 c0 -2 7 -7 16 -10 8 -3 12 -2 9 4 -6 10 -25 14 -25 6z"/>
<path d="M5504 2582 c4 -3 14 -7 22 -8 9 -1 13 0 10 4 -4 3 -14 7 -22 8 -9 1
-13 0 -10 -4z"/>
<path d="M5091 2567 c-8 -10 -7 -14 2 -14 8 0 14 6 14 14 0 7 -1 13 -2 13 -2
0 -8 -6 -14 -13z"/>
<path d="M5155 2570 c-4 -6 -10 -8 -14 -6 -4 3 -8 -1 -8 -9 0 -13 4 -12 19 2
18 16 22 23 14 23 -3 0 -8 -5 -11 -10z"/>
<path d="M3030 2566 c0 -2 7 -7 16 -10 8 -3 12 -2 9 4 -6 10 -25 14 -25 6z"/>
<path d="M2029 2543 c-13 -16 -12 -17 4 -4 9 7 17 15 17 17 0 8 -8 3 -21 -13z"/>
<path d="M5202 2523 c25 -27 39 -32 15 -5 -10 10 -15 21 -12 24 3 2 -2 5 -10
5 -12 0 -10 -6 7 -24z"/>
<path d="M3055 2530 c-4 -6 -10 -8 -15 -5 -5 3 -11 1 -14 -4 -8 -13 22 -7 36
7 7 7 9 12 6 12 -4 0 -10 -5 -13 -10z"/>
<path d="M4975 2529 c-4 -6 -5 -12 -2 -15 2 -3 7 2 10 11 7 17 1 20 -8 4z"/>
<path d="M4330 2521 c0 -6 4 -12 8 -15 5 -3 9 1 9 9 0 8 -4 15 -9 15 -4 0 -8
-4 -8 -9z"/>
<path d="M5525 2520 c-3 -6 1 -7 9 -4 18 7 21 14 7 14 -6 0 -13 -4 -16 -10z"/>
<path d="M4390 2516 c0 -2 8 -10 18 -17 15 -13 16 -12 3 4 -13 16 -21 21 -21
13z"/>
<path d="M4990 2517 c0 -2 6 -10 14 -16 11 -9 16 -9 22 1 4 7 4 10 -1 6 -4 -4
-14 -3 -22 3 -7 6 -13 9 -13 6z"/>
<path d="M4959 2495 c-1 -3 -2 -13 -3 -22 -1 -10 -5 -25 -10 -33 -7 -12 -6
-13 5 -2 11 11 22 62 12 62 -1 0 -4 -2 -4 -5z"/>
<path d="M5255 2490 c-3 -6 -20 -8 -38 -5 -17 4 -28 3 -24 -1 14 -14 74 -12
74 2 0 17 -4 18 -12 4z"/>
<path d="M5514 2476 c1 -14 4 -28 7 -31 3 -3 5 6 5 19 -1 14 -4 28 -7 31 -3 3
-5 -6 -5 -19z"/>
<path d="M2031 2487 c2 -2 11 -8 20 -15 12 -9 16 -9 16 1 0 7 -9 14 -20 14
-11 1 -18 1 -16 0z"/>
<path d="M2096 2478 c3 -4 11 -5 19 -1 21 7 19 12 -4 10 -11 0 -18 -5 -15 -9z"/>
<path d="M2917 2475 c-4 -8 -3 -16 1 -19 4 -3 9 4 9 15 2 23 -3 25 -10 4z"/>
<path d="M4446 2478 c3 -5 10 -6 15 -3 13 9 11 12 -6 12 -8 0 -12 -4 -9 -9z"/>
<path d="M2949 2463 c-13 -16 -12 -17 4 -4 9 7 17 15 17 17 0 8 -8 3 -21 -13z"/>
<path d="M2225 2459 c-3 -4 2 -6 10 -5 21 3 28 13 10 13 -9 0 -18 -4 -20 -8z"/>
<path d="M2465 2459 c-3 -4 2 -6 10 -5 21 3 28 13 10 13 -9 0 -18 -4 -20 -8z"/>
<path d="M2705 2459 c-3 -4 2 -6 10 -5 21 3 28 13 10 13 -9 0 -18 -4 -20 -8z"/>
<path d="M4787 2459 c7 -7 15 -10 18 -7 3 3 -2 9 -12 12 -14 6 -15 5 -6 -5z"/>
<path d="M4909 2457 c6 -8 7 -18 3 -22 -4 -5 -1 -5 6 -1 10 6 10 11 1 22 -6 8
-14 14 -16 14 -3 0 0 -6 6 -13z"/>
<path d="M5279 2468 c-4 -12 -5 -57 0 -53 6 6 10 55 4 55 -1 0 -3 -1 -4 -2z"/>
<path d="M5307 2459 c7 -7 15 -10 18 -7 3 3 -2 9 -12 12 -14 6 -15 5 -6 -5z"/>
<path d="M4459 2458 c-5 -9 -5 -48 -1 -43 6 6 11 45 5 45 -2 0 -4 -1 -4 -2z"/>
<path d="M4534 2449 c-3 -6 -2 -15 3 -20 5 -5 9 -1 9 11 0 23 -2 24 -12 9z"/>
<path d="M4650 2456 c0 -2 8 -10 18 -17 15 -13 16 -12 3 4 -13 16 -21 21 -21
13z"/>
<path d="M4730 2456 c0 -2 8 -10 18 -17 15 -13 16 -12 3 4 -13 16 -21 21 -21
13z"/>
<path d="M2127 2439 c7 -7 15 -10 18 -7 3 3 -2 9 -12 12 -14 6 -15 5 -6 -5z"/>
<path d="M2270 2440 c0 -5 5 -10 11 -10 5 0 7 5 4 10 -3 6 -8 10 -11 10 -2 0
-4 -4 -4 -10z"/>
<path d="M2540 2446 c0 -2 8 -10 18 -17 15 -13 16 -12 3 4 -13 16 -21 21 -21
13z"/>
<path d="M2607 2439 c7 -7 15 -10 18 -7 3 3 -2 9 -12 12 -14 6 -15 5 -6 -5z"/>
<path d="M2750 2440 c0 -5 5 -10 11 -10 5 0 7 5 4 10 -3 6 -8 10 -11 10 -2 0
-4 -4 -4 -10z"/>
<path d="M4626 2418 c3 -4 9 -8 15 -8 5 0 9 4 9 8 0 5 -7 9 -15 9 -8 0 -12 -4
-9 -9z"/>
<path d="M4873 2415 c0 -8 4 -12 9 -9 5 3 6 10 3 15 -9 13 -12 11 -12 -6z"/>
<path d="M4515 2400 c3 -5 8 -10 11 -10 2 0 4 5 4 10 0 6 -5 10 -11 10 -5 0
-7 -4 -4 -10z"/>
<path d="M5293 2393 c0 -10 4 -10 16 -1 9 7 18 13 20 15 2 1 -5 1 -16 0 -11 0
-20 -7 -20 -14z"/>
<path d="M5473 2393 c0 -9 4 -10 14 -2 7 6 13 12 13 14 0 1 -6 2 -13 2 -8 0
-14 -6 -14 -14z"/>
<path d="M4733 2385 c0 -8 4 -12 9 -9 5 3 6 10 3 15 -9 13 -12 11 -12 -6z"/>
<path d="M4650 2379 c0 -5 5 -7 10 -4 6 3 10 8 10 11 0 2 -4 4 -10 4 -5 0 -10
-5 -10 -11z"/>
<path d="M2894 2270 c-23 -9 -39 -28 -31 -36 3 -3 14 -1 24 4 18 10 19 5 18
-100 0 -81 3 -112 13 -115 9 -4 12 25 12 121 0 68 -3 127 -7 129 -5 3 -18 1
-29 -3z"/>
<path d="M3084 2255 c-24 -24 -27 -63 -7 -87 8 -10 8 -18 -3 -32 -20 -28 -18
-80 4 -99 19 -17 78 -23 99 -9 25 16 34 62 18 94 -10 21 -12 36 -5 48 14 26
12 63 -3 84 -20 28 -76 28 -103 1z m87 -14 c0 -3 2 -16 5 -28 7 -40 -46 -69
-74 -41 -17 17 -15 65 4 76 17 9 63 4 65 -7z m-7 -117 c32 -31 14 -84 -28 -84
-30 0 -46 13 -51 41 -5 27 3 43 25 52 26 9 38 8 54 -9z"/>
<path d="M3329 2275 c0 0 -2 -17 -5 -37 -3 -30 0 -36 11 -32 8 4 15 15 15 25
0 15 7 19 39 19 l40 0 -29 -107 c-34 -123 -34 -126 -18 -121 10 4 81 239 73
246 -2 2 -121 9 -126 7z"/>
<path d="M3583 2258 c-19 -22 -10 -36 12 -18 18 15 17 21 17 -112 0 -78 3
-108 12 -108 9 0 13 30 14 108 0 59 -1 116 -3 128 -6 26 -29 27 -52 2z"/>
<path d="M4047 2273 c-22 -6 -54 -63 -35 -63 7 0 19 9 26 20 14 22 54 27 70 8
17 -22 4 -55 -48 -126 -27 -38 -50 -74 -50 -80 0 -8 24 -12 71 -12 58 0 69 2
61 13 -7 8 -29 12 -57 11 -52 -3 -52 -3 14 85 42 56 54 108 29 128 -17 13 -58
21 -81 16z"/>
<path d="M4285 2256 c-21 -21 -23 -31 -20 -116 3 -104 12 -120 70 -120 38 0
62 24 65 65 5 73 -1 153 -12 168 -21 28 -76 30 -103 3z m84 -23 c15 -30 11
-161 -6 -178 -18 -19 -47 -19 -62 -1 -12 14 -17 168 -6 186 10 17 63 12 74 -7z"/>
<path d="M4558 2264 c-14 -7 -28 -22 -31 -34 -7 -26 14 -26 31 1 17 27 62 22
73 -8 6 -18 -1 -35 -36 -85 -25 -35 -52 -75 -60 -90 l-16 -28 71 0 c50 0 70 4
70 13 0 8 -14 12 -42 11 -24 -1 -46 0 -50 3 -4 2 13 31 37 65 76 102 72 148
-11 164 -5 1 -22 -4 -36 -12z"/>
<path d="M4804 2270 c-23 -9 -39 -28 -31 -36 3 -3 14 -1 25 5 19 10 20 7 18
-104 -1 -86 2 -115 12 -115 9 0 12 32 12 124 0 69 -3 127 -7 129 -5 3 -18 1
-29 -3z"/>
<path d="M3781 2122 c-31 -10 -4 -22 51 -22 46 0 59 3 51 11 -11 11 -79 19
-102 11z"/>
<path d="M5554 3202 c4 -3 14 -7 22 -8 9 -1 13 0 10 4 -4 3 -14 7 -22 8 -9 1
-13 0 -10 -4z"/>
<path d="M4776 3238 c3 -4 11 -5 19 -1 21 7 19 12 -4 10 -11 0 -18 -5 -15 -9z"/>
<path d="M4653 3207 c0 -8 6 -14 14 -14 9 0 10 4 2 14 -6 7 -12 13 -14 13 -1
0 -2 -6 -2 -13z"/>
<path d="M4750 3123 c0 -6 8 -17 18 -24 16 -13 16 -13 2 6 -8 11 -16 22 -17
24 -2 2 -3 0 -3 -6z"/>
<path d="M4800 3100 c-9 -6 -10 -10 -3 -10 6 0 15 5 18 10 8 12 4 12 -15 0z"/>
<path d="M4626 2898 c3 -5 10 -6 15 -3 13 9 11 12 -6 12 -8 0 -12 -4 -9 -9z"/>
<path d="M4649 2883 c-13 -16 -12 -17 4 -4 16 13 21 21 13 21 -2 0 -10 -8 -17
-17z"/>
<path d="M4779 2793 c-13 -17 -13 -17 6 -3 11 8 22 16 24 17 2 2 0 3 -6 3 -6
0 -17 -8 -24 -17z"/>
<path d="M4655 2770 c-4 -6 -11 -7 -17 -4 -7 4 -8 2 -4 -5 6 -9 11 -9 22 0 14
11 18 19 10 19 -3 0 -8 -5 -11 -10z"/>
<path d="M4735 2769 c-4 -6 -5 -12 -2 -15 2 -3 7 2 10 11 7 17 1 20 -8 4z"/>
<path d="M4750 2756 c0 -2 8 -10 18 -17 15 -13 16 -12 3 4 -13 16 -21 21 -21
13z"/>
<path d="M4794 2726 c1 -8 5 -18 8 -22 4 -3 5 1 4 10 -1 8 -5 18 -8 22 -4 3
-5 -1 -4 -10z"/>
<path d="M4719 2718 c-5 -18 -6 -38 -1 -34 7 8 12 36 6 36 -2 0 -4 -1 -5 -2z"/>
</g>
</svg>
